<svg xmlns="http://www.w3.org/2000/svg" xmlns:xlink="http://www.w3.org/1999/xlink" version="1.1" x="0px" y="0px" viewBox="0 0 100 100" enable-background="new 0 0 100 100" xml:space="preserve"><path fill="#000000" d="M88,19.7L80.3,12c-1.3-1.3-3.1-2-4.9-2c-1.9,0-3.6,0.7-4.9,2l-3.8,3.8c0,0,0,0,0,0L26.4,56.1  c-0.1,0.1-0.2,0.2-0.2,0.3c0,0,0,0.1-0.1,0.1c-0.1,0.1-0.1,0.2-0.2,0.3c0,0,0,0,0,0.1c0,0.1,0,0.1-0.1,0.2l-5.5,20.1  c-0.2,0.7,0,1.5,0.5,2c0.4,0.4,0.9,0.6,1.5,0.6c0.2,0,0.4,0,0.5-0.1L43,74.1c0.1,0,0.1,0,0.2-0.1c0,0,0,0,0.1,0  c0.1,0,0.2-0.1,0.3-0.2c0,0,0.1,0,0.1-0.1c0.1-0.1,0.2-0.1,0.3-0.2l40.2-40.2l3.8-3.8C90.7,26.9,90.7,22.4,88,19.7z M30,73.4  L26.6,70l2.3-8.5l9.6,9.6L30,73.4z M30.8,57.5l37.3-37.3l1,1l3.4,3.4L35.2,61.9L30.8,57.5z M42.5,69.2l-4.4-4.4l37.3-37.3l4.4,4.4  L42.5,69.2z M85,26.7L82.7,29L71,17.3l2.4-2.4c0.5-0.5,1.2-0.8,2-0.8c0.8,0,1.5,0.3,2,0.8l7.7,7.7C86.1,23.8,86.1,25.6,85,26.7z   M79.2,47.1c-1.1,0-2.1,0.9-2.1,2.1v33.6c0,1.7-1.4,3.1-3.1,3.1H17.2c-1.7,0-3.1-1.4-3.1-3.1V25.9c0-1.7,1.4-3.1,3.1-3.1h33.6  c1.1,0,2.1-0.9,2.1-2.1s-0.9-2.1-2.1-2.1H17.2c-4,0-7.2,3.2-7.2,7.2v56.8c0,4,3.2,7.2,7.2,7.2h56.8c4,0,7.2-3.2,7.2-7.2V49.2  C81.3,48.1,80.4,47.1,79.2,47.1z"></path></svg>