<svg xmlns="http://www.w3.org/2000/svg" xmlns:xlink="http://www.w3.org/1999/xlink" version="1.0" x="0px" y="0px" viewBox="0 0 100 100" enable-background="new 0 0 100 100" xml:space="preserve"><g><g><polygon fill="#000000" points="53,35 47,35 47,47 35,47 35,53 47,53 47,65 53,65 53,53 65,53 65,47 53,47   "></polygon><path fill="#000000" d="M71.061,23H28.939C24.012,23,20,27.012,20,31.939v36.123C20,72.988,24.012,77,28.939,77h42.121    C75.988,77,80,72.988,80,68.062V31.939C80,27.012,75.988,23,71.061,23z M74,68.062C74,69.682,72.682,71,71.061,71H28.939    C27.318,71,26,69.682,26,68.062V31.939C26,30.318,27.318,29,28.939,29h42.121C72.682,29,74,30.318,74,31.939V68.062z"></path></g></g></svg>