<?xml version="1.0" encoding="UTF-8" standalone="no"?>
<svg width="86px" height="124px" viewBox="0 0 86 124" version="1.1" xmlns="http://www.w3.org/2000/svg" xmlns:xlink="http://www.w3.org/1999/xlink" xmlns:sketch="http://www.bohemiancoding.com/sketch/ns">
    <!-- Generator: Sketch 3.4.3 (16618) - http://www.bohemiancoding.com/sketch -->
    <title>livebook logo</title>
    <desc>Created with Sketch.</desc>
    <defs>
        <path d="M12.5902609,4.68292072e-13 L10.2305699,6.2525752 L18.586231,6.2525752 L-1.42108547e-13,41.4014579 L7.43109099,15.1701423 L-1.42108547e-13,15.1701423 L4.37751788,4.64073224e-13 L12.5902609,4.67181849e-13 Z" id="path-1"></path>
        <path d="M12.5902609,1.82964754e-13 L10.2305699,6.2525752 L18.586231,6.2525752 L-5.15143483e-14,41.4014579 L7.43109099,15.1701423 L-5.15143483e-14,15.1701423 L4.37751788,1.80966353e-13 L12.5902609,1.81188398e-13 Z" id="path-3"></path>
    </defs>
    <g id="Page-1" stroke="none" stroke-width="1" fill="none" fill-rule="evenodd" sketch:type="MSPage">
        <g id="livebook-logo" sketch:type="MSLayerGroup" transform="translate(-1.000000, -7.000000)">
            <g id="lightning" transform="translate(70.443346, 23.261022) rotate(-160.000000) translate(-70.443346, -23.261022) translate(60.943346, 2.261022)">
                <mask id="mask-2" sketch:name="Mask" fill="white">
                    <use xlink:href="#path-1"></use>
                </mask>
                <use id="Mask" fill="#FFFFFF" sketch:type="MSShapeGroup" xlink:href="#path-1"></use>
            </g>
            <g id="lightning" transform="translate(16.992162, 114.694097) rotate(-340.000000) translate(-16.992162, -114.694097) translate(7.492162, 93.694097)">
                <mask id="mask-4" sketch:name="Mask" fill="white">
                    <use xlink:href="#path-3"></use>
                </mask>
                <use id="Mask" fill="#FFFFFF" sketch:type="MSShapeGroup" xlink:href="#path-3"></use>
            </g>
            <g id="book" transform="translate(4.339806, 41.566265)" fill="#FFFFFF" sketch:type="MSShapeGroup">
                <g id="Group">
                    <path d="M10.0194175,11.6385542 L10.0194175,14.1325301 C17.4504854,12.9686747 25.0485437,12.1373494 32.5631068,12.4698795 L32.5631068,9.97590361 C25.0485437,9.64337349 17.4504854,10.4746988 10.0194175,11.6385542 L10.0194175,11.6385542 Z" id="Shape"></path>
                    <path d="M10.0194175,26.6024096 L10.0194175,29.0963855 C17.4504854,27.9325301 25.0485437,27.1012048 32.5631068,27.4337349 L32.5631068,24.939759 C25.0485437,24.6072289 17.4504854,25.4385542 10.0194175,26.6024096 L10.0194175,26.6024096 Z" id="Shape"></path>
                    <path d="M10.0194175,16.626506 L10.0194175,19.1204819 C17.4504854,17.9566265 25.0485437,17.1253012 32.5631068,17.4578313 L32.5631068,14.9638554 C25.0485437,14.6313253 17.4504854,15.4626506 10.0194175,16.626506 L10.0194175,16.626506 Z" id="Shape"></path>
                    <path d="M10.0194175,41.5662651 L10.0194175,44.060241 C17.4504854,42.8963855 25.0485437,42.0650602 32.5631068,42.3975904 L32.5631068,39.9036145 C25.0485437,39.5710843 17.4504854,40.4024096 10.0194175,41.5662651 L10.0194175,41.5662651 Z" id="Shape"></path>
                    <path d="M10.0194175,36.5783133 L10.0194175,39.0722892 C17.4504854,37.9084337 25.0485437,37.0771084 32.5631068,37.4096386 L32.5631068,34.9156627 C25.0485437,34.5831325 17.4504854,35.4144578 10.0194175,36.5783133 L10.0194175,36.5783133 Z" id="Shape"></path>
                    <path d="M10.0194175,31.5903614 L10.0194175,34.0843373 C17.4504854,32.9204819 25.0485437,32.0891566 32.5631068,32.4216867 L32.5631068,29.9277108 C25.0485437,29.5951807 17.4504854,30.426506 10.0194175,31.5903614 L10.0194175,31.5903614 Z" id="Shape"></path>
                    <path d="M68.4660194,11.6385542 L68.4660194,14.1325301 C61.0349515,12.9686747 53.4368932,12.1373494 45.9223301,12.4698795 L45.9223301,9.97590361 C53.4368932,9.64337349 61.0349515,10.4746988 68.4660194,11.6385542 L68.4660194,11.6385542 Z" id="Shape"></path>
                    <path d="M68.4660194,26.6024096 L68.4660194,29.0963855 C61.0349515,27.9325301 53.4368932,27.1012048 45.9223301,27.4337349 L45.9223301,24.939759 C53.4368932,24.6072289 61.0349515,25.4385542 68.4660194,26.6024096 L68.4660194,26.6024096 Z" id="Shape"></path>
                    <path d="M68.4660194,16.626506 L68.4660194,19.1204819 C61.0349515,17.9566265 53.4368932,17.1253012 45.9223301,17.4578313 L45.9223301,14.9638554 C53.4368932,14.6313253 61.0349515,15.4626506 68.4660194,16.626506 L68.4660194,16.626506 Z" id="Shape"></path>
                    <path d="M68.4660194,41.5662651 L68.4660194,44.060241 C61.0349515,42.8963855 53.4368932,42.0650602 45.9223301,42.3975904 L45.9223301,39.9036145 C53.4368932,39.5710843 61.0349515,40.4024096 68.4660194,41.5662651 L68.4660194,41.5662651 Z" id="Shape"></path>
                    <path d="M68.4660194,36.5783133 L68.4660194,39.0722892 C61.0349515,37.9084337 53.4368932,37.0771084 45.9223301,37.4096386 L45.9223301,34.9156627 C53.4368932,34.5831325 61.0349515,35.4144578 68.4660194,36.5783133 L68.4660194,36.5783133 Z" id="Shape"></path>
                    <path d="M18.368932,20.5337349 C15.5300971,20.8662651 12.7747573,21.1987952 10.0194175,21.6144578 L10.0194175,24.1084337 C12.7747573,23.6927711 15.5300971,23.2771084 18.368932,23.0277108 L18.368932,20.5337349 L18.368932,20.5337349 Z" id="Shape"></path>
                    <path d="M78.4854369,55.6987952 L78.4854369,2.4939759 L73.4757282,2.4939759 C73.4757282,2.4939759 69.6349515,1.82891566 64.5417476,1.08072289 C59.4485437,0.415662651 53.2699029,0 48.0097087,0 C46.3398058,0 44.7533981,0.0831325301 43.4174757,0.24939759 C42.0815534,0.415662651 40.8291262,0.665060241 39.8271845,1.16385542 C39.576699,1.24698795 39.4097087,1.41325301 39.1592233,1.49638554 C38.9087379,1.33012048 38.7417476,1.24698795 38.4912621,1.16385542 C37.5728155,0.665060241 36.4038835,0.415662651 35.0679612,0.24939759 C33.6485437,0.0831325301 32.1456311,0 30.4757282,0 C25.215534,0 19.1203883,0.415662651 13.9436893,1.08072289 C8.85048544,1.82891566 5.00970874,2.4939759 5.00970874,2.4939759 L0,2.4939759 L0,55.6987952 L34.2330097,55.6987952 C34.2330097,57.1120482 35.3184466,58.1927711 36.7378641,58.1927711 L41.7475728,58.1927711 C43.1669903,58.1927711 44.2524272,57.1120482 44.2524272,55.6987952 L78.4854369,55.6987952 L78.4854369,55.6987952 Z M5.00970874,53.2048193 L2.50485437,53.2048193 L2.50485437,4.98795181 L5.00970874,4.98795181 L5.00970874,53.2048193 L5.00970874,53.2048193 Z M30.4757282,49.8795181 C25.215534,49.8795181 19.1203883,50.2951807 13.9436893,50.960241 C11.3553398,51.2927711 9.10097087,51.6253012 7.51456311,51.9578313 L7.51456311,4.57228916 C9.43495146,4.23975904 12.607767,3.74096386 16.1980583,3.3253012 C20.8737864,2.74337349 26.0504854,2.4939759 30.392233,2.4939759 C32.4796117,2.4939759 34.4,2.66024096 35.8194175,2.90963855 C36.4873786,3.07590361 37.0718447,3.24216867 37.4893204,3.40843373 C37.6563107,3.49156627 37.823301,3.5746988 37.9902913,3.65783133 L37.9902913,50.7939759 C37.1553398,50.4614458 36.1533981,50.2951807 35.0679612,50.1289157 C33.6485437,49.9626506 32.1456311,49.8795181 30.4757282,49.8795181 L30.4757282,49.8795181 Z M70.9708738,51.9578313 C69.384466,51.7084337 67.1300971,51.3759036 64.5417476,50.960241 C59.4485437,50.2951807 53.2699029,49.8795181 48.0097087,49.8795181 C46.3398058,49.8795181 44.7533981,49.9626506 43.4174757,50.1289157 C42.3320388,50.2951807 41.3300971,50.4614458 40.4951456,50.7939759 L40.4951456,3.65783133 C40.5786408,3.5746988 40.7456311,3.49156627 40.9961165,3.40843373 C41.4135922,3.24216867 41.9980583,3.07590361 42.6660194,2.90963855 C44.0019417,2.66024096 45.9223301,2.4939759 48.0097087,2.4939759 C52.3514563,2.4939759 57.5281553,2.74337349 62.2038835,3.3253012 C65.7941748,3.74096386 68.9669903,4.23975904 70.8873786,4.57228916 L70.8873786,51.9578313 L70.9708738,51.9578313 Z M75.9805825,53.2048193 L73.4757282,53.2048193 L73.4757282,4.98795181 L75.9805825,4.98795181 L75.9805825,53.2048193 L75.9805825,53.2048193 Z" id="Shape"></path>
                    <path d="M65.1262136,48.6325301 C66.3786408,48.7987952 67.4640777,48.9650602 68.4660194,49.1313253 L68.4660194,46.6373494 C67.4640777,46.4710843 66.2951456,46.3048193 65.1262136,46.1385542 L65.1262136,48.6325301 L65.1262136,48.6325301 Z" id="Shape"></path>
                    <path d="M10.0194175,49.1313253 C11.0213592,48.9650602 12.1067961,48.7987952 13.3592233,48.6325301 L13.3592233,46.1385542 C12.1902913,46.3048193 11.0213592,46.4710843 10.0194175,46.6373494 L10.0194175,49.1313253 L10.0194175,49.1313253 Z" id="Shape"></path>
                    <path d="M60.1165049,30.5096386 C55.3572816,30.0108434 50.6815534,29.7614458 45.9223301,29.9277108 L45.9223301,32.4216867 C50.6815534,32.1722892 55.3572816,32.4216867 60.1165049,33.0036145 L60.1165049,30.5096386 L60.1165049,30.5096386 Z" id="Shape"></path>
                </g>
            </g>
        </g>
    </g>
</svg>