<?xml version="1.0" encoding="UTF-8" standalone="no"?>
<svg width="19px" height="28px" viewBox="0 0 19 28" version="1.1" xmlns="http://www.w3.org/2000/svg" xmlns:xlink="http://www.w3.org/1999/xlink" xmlns:sketch="http://www.bohemiancoding.com/sketch/ns">
    <!-- Generator: Sketch 3.4.3 (16618) - http://www.bohemiancoding.com/sketch -->
    <title>questionmark</title>
    <desc>Created with Sketch.</desc>
    <defs></defs>
    <g id="Page-1" stroke="none" stroke-width="1" fill="none" fill-rule="evenodd" sketch:type="MSPage">
        <g id="starter-notebook" sketch:type="MSLayerGroup" transform="translate(-20.000000, -11.000000)" fill="#555555">
            <g id="questionmark" transform="translate(20.000000, 11.000000)" sketch:type="MSShapeGroup">
                <g id="Group">
                    <path d="M12.0880714,20.7565941 L4.89385714,20.7565941 C4.63681429,20.7565941 4.42835714,20.9697822 4.42835714,21.2323168 L4.42835714,27.244 C4.42835714,27.5065347 4.63708571,27.7230495 4.89385714,27.7230495 L12.0880714,27.7230495 C12.3453857,27.7230495 12.5533,27.5068119 12.5533,27.244 C12.5533,26.9811881 12.3453857,26.7688317 12.0880714,26.7688317 L5.36207143,26.7688317 L5.36207143,21.7072079 L11.6225714,21.7072079 L11.6225714,24.9047525 C11.6225714,25.1672871 11.8310286,25.3799208 12.0880714,25.3799208 C12.3453857,25.3799208 12.5533,25.1672871 12.5533,24.9047525 L12.5533,21.2323168 C12.5533,20.9697822 12.3453857,20.7565941 12.0880714,20.7565941 L12.0880714,20.7565941 Z" id="Shape"></path>
                    <path d="M9.65471429,0 C5.99042857,0 2.86031429,1.29465347 0.355842857,3.85263366 C0.192985714,4.0189703 0.1729,4.28732673 0.315671429,4.47722772 L3.7772,9.14463366 C3.857,9.25192079 3.97452857,9.31928713 4.1059,9.33093069 C4.23401429,9.3420198 4.36267143,9.30126733 4.45984286,9.21144554 C6.0249,7.78427723 7.70965714,7 9.20658571,7 C10.0005143,7 11.3364857,7.18990099 11.3364857,8.46764356 L11.3364857,8.50174257 C11.3364857,10.1501386 8.46395714,10.7517228 6.05367143,10.9615842 C5.81372857,10.9848713 5.6278,11.1886337 5.6278,11.4367525 L5.6278,15.1089109 C5.6278,15.3717228 5.83652857,15.5849109 6.09357143,15.5849109 C6.35034286,15.5849109 6.56178571,15.3717228 6.56178571,15.1089109 L6.56178571,11.8689505 C10.4006,11.4691881 12.2683,10.366099 12.2683,8.5020198 L12.2683,8.46792079 C12.2683,6.97338614 11.0946429,6.04661386 9.20631429,6.04661386 C7.60678571,6.04661386 5.85037143,6.7959604 4.22261429,8.16712871 L1.30638571,4.23742574 C3.58014286,2.05619802 6.38752857,0.950613861 9.65471429,0.950613861 C14.6324429,0.950613861 17.8480571,3.68047525 17.8480571,7.90126733 L17.8480571,7.97473267 C17.8480571,11.6177822 15.8750429,13.7330297 11.4513,14.8319604 C11.2917,14.8729901 11.1627714,14.9952475 11.1144571,15.1554851 L10.5433714,17.0813861 L6.09357143,17.0813861 C5.83652857,17.0813861 5.6278,17.2970693 5.6278,17.5593267 C5.6278,17.8215842 5.83652857,18.0347723 6.09357143,18.0347723 L10.8886286,18.0347723 C11.0949143,18.0347723 11.2773143,17.898099 11.3364857,17.6965545 L11.9311857,15.6927525 C14.9473,14.9048713 18.7798714,13.2154455 18.7798714,7.97445545 L18.7798714,7.9009901 C18.7798714,3.17287129 15.1128714,0 9.65471429,0 L9.65471429,0 Z" id="Shape"></path>
                </g>
            </g>
        </g>
    </g>
</svg>